<svg data-v-fde0c5aa="" xmlns="http://www.w3.org/2000/svg" viewBox="0 0 300 300" class="iconLeft"><!----><defs data-v-fde0c5aa=""><!----></defs><rect data-v-fde0c5aa="" fill="#FFFFFF" x="0" y="0" width="300px" height="300px" class="logo-background-square"></rect><defs data-v-fde0c5aa=""><!----></defs><g data-v-fde0c5aa="" id="e9dd6812-78e6-421f-b410-510890451fae" fill="#1E1F4B" transform="matrix(3.535728555649497,0,0,3.535728555649497,129.31947202682554,119.0977315469207)"><path d="M3.04 14.06L3.04 3.42L0.62 3.42L0.62 14.06ZM8.74 14.06L8.74 6.09L11.17 6.09L11.17 3.42L3.89 3.42L3.89 6.09L6.33 6.09L6.33 14.06ZM19.80 14.06L19.80 3.42L17.39 3.42L17.39 7.52L14.43 7.52L14.43 3.42L12.01 3.42L12.01 14.06L14.43 14.06L14.43 9.94L17.39 9.94L17.39 14.06ZM26.42 14.06C27.66 14.06 28.29 13.41 28.29 12.14L28.29 5.84L25.90 5.84L25.90 11.21C25.90 11.49 25.76 11.63 25.48 11.63L23.84 11.63C23.56 11.63 23.42 11.48 23.42 11.19L23.42 5.84L21 5.84L21 12.19C21 13.44 21.66 14.06 22.96 14.06ZM35 14.06C36.30 14.06 36.96 13.44 36.96 12.19L36.96 7.77C36.96 6.48 36.32 5.84 35.04 5.84L31.93 5.84L31.93 3.42L29.51 3.42L29.51 14.06ZM34.54 11.19C34.54 11.48 34.40 11.63 34.12 11.63L31.93 11.63L31.93 8.27L34.12 8.27C34.40 8.27 34.54 8.41 34.54 8.69Z"></path></g><defs data-v-fde0c5aa=""><!----></defs><g data-v-fde0c5aa="" id="886d2f3d-102d-44db-8387-ed58e657ea3a" stroke="none" fill="#60a8ff" transform="matrix(2.4534882421308724,0,0,2.4534882421308724,40.00000043871788,111.97093224697147)"><path d="M17.063 4l-.031.156-5 22-.188.844h3.094l.031-.156 5-22L20.157 4h-3.094zM10 7l-.406.313-9 7-.594.469v1.438l.594.469 9 7 .406.313v-3.781l-6.063-4.719L10 10.783V7.002zm12 0v3.781l6.063 4.719L22 20.219V24l.406-.313 9-7 .594-.469V14.78l-.594-.469-9-7L22 6.998z"></path></g><!----></svg>