<?xml version="1.0" standalone="no"?>
<!DOCTYPE svg PUBLIC "-//W3C//DTD SVG 20010904//EN"
 "http://www.w3.org/TR/2001/REC-SVG-20010904/DTD/svg10.dtd">
<svg version="1.0" xmlns="http://www.w3.org/2000/svg"
 width="641.000000pt" height="268.000000pt" viewBox="0 0 641.000000 268.000000"
 preserveAspectRatio="xMidYMid meet">

<g transform="translate(0.000000,268.000000) scale(0.100000,-0.100000)"
fill="#000000" stroke="none">
<path d="M980 1670 c0 -11 7 -20 15 -20 8 0 15 9 15 20 0 11 -7 20 -15 20 -8
0 -15 -9 -15 -20z"/>
<path d="M1615 1315 c0 -203 1 -285 2 -182 2 104 2 270 0 370 -1 100 -2 16 -2
-188z"/>
<path d="M854 1646 c-60 -28 -85 -55 -27 -30 21 9 55 22 75 28 46 14 59 26 27
26 -13 0 -47 -11 -75 -24z"/>
<path d="M1045 1660 c3 -5 14 -10 23 -10 9 0 41 -11 70 -25 61 -28 66 -29 56
-14 -10 16 -105 59 -132 59 -13 0 -20 -4 -17 -10z"/>
<path d="M2701 1618 c13 -47 43 -68 96 -68 57 0 81 14 99 55 19 45 19 45 -15
45 -21 0 -32 -6 -36 -21 -14 -42 -76 -42 -90 1 -4 14 -15 20 -35 20 -27 0 -28
-1 -19 -32z"/>
<path d="M720 1565 c0 -8 7 -15 15 -15 8 0 15 7 15 15 0 8 -7 15 -15 15 -8 0
-15 -7 -15 -15z"/>
<path d="M1230 1565 c0 -8 7 -15 15 -15 8 0 15 7 15 15 0 8 -7 15 -15 15 -8 0
-15 -7 -15 -15z"/>
<path d="M671 1468 c-25 -58 -34 -98 -21 -98 5 0 10 8 10 18 0 9 11 41 25 70
13 28 20 52 14 52 -6 0 -18 -19 -28 -42z"/>
<path d="M1299 1473 c10 -21 22 -53 26 -70 3 -18 11 -33 16 -33 5 0 7 12 3 28
-11 46 -42 112 -54 112 -6 0 -2 -16 9 -37z"/>
<path d="M2171 1493 c-7 -15 -193 -451 -209 -491 -3 -10 7 -12 43 -10 l47 3
83 203 c81 199 91 220 99 211 7 -7 76 -179 76 -189 0 -6 -24 -10 -54 -10 -50
0 -54 -2 -62 -27 -4 -16 -8 -32 -8 -38 -1 -6 36 -12 83 -15 l84 -5 28 -65 27
-65 51 -3 51 -3 -28 63 c-15 35 -65 152 -112 261 l-85 197 -52 0 c-40 0 -55
-4 -62 -17z"/>
<path d="M2580 1250 l0 -260 48 0 48 0 125 188 124 187 3 -187 2 -188 45 0 45
0 0 261 0 260 -52 -3 -52 -3 -120 -190 -121 -190 -3 193 -2 192 -45 0 -45 0 0
-260z"/>
<path d="M3080 1475 l0 -35 75 0 75 0 0 -225 0 -225 45 0 45 0 2 223 3 222 78
3 77 3 0 34 0 35 -200 0 -200 0 0 -35z"/>
<path d="M3540 1250 l0 -260 44 0 44 0 126 193 126 192 0 -192 0 -193 45 0 45
0 0 261 0 260 -47 -3 -47 -3 -121 -186 -120 -187 -3 189 -2 189 -45 0 -45 0 0
-260z"/>
<path d="M4066 1498 c4 -7 44 -60 89 -118 45 -58 85 -111 89 -118 6 -10 -94
-151 -182 -254 -14 -17 -11 -18 45 -18 l60 0 68 95 c38 52 72 95 76 95 5 0 40
-43 78 -95 l71 -95 55 0 c30 0 55 2 55 5 0 3 -45 62 -100 131 l-100 127 52 66
c29 36 68 86 88 111 70 88 70 80 4 80 l-59 0 -72 -95 -71 -95 -72 95 -73 95
-54 0 c-41 0 -52 -3 -47 -12z"/>
<path d="M4717 1258 c-59 -140 -107 -257 -107 -261 0 -5 21 -7 46 -5 l45 3 80
195 c43 107 79 200 79 207 0 7 6 13 13 13 10 0 87 -170 87 -192 0 -5 -24 -8
-53 -8 -48 0 -55 -3 -65 -25 -23 -51 -19 -54 75 -57 l86 -3 26 -65 26 -65 48
-3 c44 -3 48 -1 43 16 -3 10 -53 126 -110 258 l-104 239 -53 3 -54 3 -108
-253z"/>
<path d="M5230 1250 l0 -260 138 0 c151 0 187 10 225 62 28 38 33 114 10 158
-24 47 -68 69 -147 77 l-66 6 0 -42 c0 -40 1 -41 35 -41 73 0 121 -51 95 -100
-17 -31 -44 -40 -125 -40 l-75 0 2 183 3 182 133 3 132 3 0 34 0 35 -180 0
-180 0 0 -260z"/>
<path d="M987 1337 c-44 -125 -45 -132 -28 -132 11 0 50 94 86 206 3 9 -1 19
-9 22 -10 4 -23 -21 -49 -96z"/>
<path d="M849 1355 c-19 -14 -34 -30 -34 -35 0 -4 18 -22 39 -39 30 -24 41
-28 48 -19 5 9 -2 21 -20 36 l-27 23 28 20 c15 12 25 25 21 30 -8 14 -17 11
-55 -16z"/>
<path d="M1085 1371 c-3 -5 7 -19 21 -30 l27 -21 -27 -21 c-28 -22 -34 -39
-13 -39 15 0 86 51 87 62 0 8 -70 58 -82 58 -4 0 -9 -4 -13 -9z"/>
<path d="M620 1326 c0 -21 21 -31 30 -15 5 7 6 17 4 21 -9 14 -34 9 -34 -6z"/>
<path d="M1340 1319 c0 -24 23 -21 28 4 2 10 -3 17 -12 17 -10 0 -16 -9 -16
-21z"/>
<path d="M644 1250 c9 -48 47 -130 57 -124 5 3 2 15 -5 27 -8 12 -20 42 -27
67 -16 57 -34 79 -25 30z"/>
<path d="M1337 1274 c-4 -4 -7 -14 -7 -23 0 -9 -11 -40 -25 -70 -29 -62 -26
-80 5 -30 31 52 53 149 27 123z"/>
<path d="M720 1080 c0 -11 7 -20 15 -20 8 0 15 9 15 20 0 11 -7 20 -15 20 -8
0 -15 -9 -15 -20z"/>
<path d="M1230 1081 c0 -12 6 -21 16 -21 9 0 14 7 12 17 -5 25 -28 28 -28 4z"/>
<path d="M790 1024 c0 -7 98 -50 133 -58 15 -4 27 -2 27 3 0 5 -15 13 -32 16
-18 4 -50 16 -70 26 -37 19 -58 24 -58 13z"/>
<path d="M1140 1011 c-19 -10 -50 -22 -67 -26 -18 -3 -33 -11 -33 -16 0 -5 12
-7 28 -3 34 8 132 51 132 58 0 11 -25 5 -60 -13z"/>
<path d="M980 965 c0 -8 7 -15 15 -15 8 0 15 7 15 15 0 8 -7 15 -15 15 -8 0
-15 -7 -15 -15z"/>
</g>
</svg>
