<svg width="234" height="66" viewBox="0 0 234 66" xmlns="http://www.w3.org/2000/svg" class="iconLeft">
    <!---->
    <defs>
        <!---->
    </defs>
    <defs>
        <!---->
    </defs>
    <defs>
        <!---->
    </defs>
    <!---->
    <g>
        <title>background</title>
        <rect fill="none" id="canvas_background" height="68" width="236" y="-1" x="-1"/>
    </g>
    <g>
        <title>Layer 1</title>
        <g transform="matrix(3.535728555649497,0,0,3.535728555649497,129.31947202682554,119.0977315469207) "
           fill="#1E1F4B" id="e9dd6812-78e6-421f-b410-510890451fae">
            <path id="svg_2"
                  d="m-6.01047,-19.59643l0,-10.64l-2.42,0l0,10.64l2.42,0zm5.7,0l0,-7.97l2.43,0l0,-2.67l-7.28,0l0,2.67l2.44,0l0,7.97l2.41,0zm11.06,0l0,-10.64l-2.41,0l0,4.1l-2.96,0l0,-4.1l-2.42,0l0,10.64l2.42,0l0,-4.12l2.96,0l0,4.12l2.41,0zm6.62,0c1.24,0 1.87,-0.65 1.87,-1.92l0,-6.3l-2.39,0l0,5.37c0,0.28 -0.14,0.42 -0.42,0.42l-1.64,0c-0.28,0 -0.42,-0.15 -0.42,-0.44l0,-5.35l-2.42,0l0,6.35c0,1.25 0.66,1.87 1.96,1.87l3.46,0zm8.58,0c1.3,0 1.96,-0.62 1.96,-1.87l0,-4.42c0,-1.29 -0.64,-1.93 -1.92,-1.93l-3.11,0l0,-2.42l-2.42,0l0,10.64l5.49,0zm-0.46,-2.87c0,0.29 -0.14,0.44 -0.42,0.44l-2.19,0l0,-3.36l2.19,0c0.28,0 0.42,0.14 0.42,0.42l0,2.5z"/>
        </g>
        <g transform="matrix(2.4534882421308724,0,0,2.4534882421308724,40.00000043871788,111.97093224697147) "
           fill="#60a8ff" id="886d2f3d-102d-44db-8387-ed58e657ea3a">
            <path id="svg_3"
                  d="m4.02035,-44.50237l-0.031,0.156l-5,22l-0.188,0.844l3.094,0l0.031,-0.156l5,-22l0.188,-0.844l-3.094,0zm-7.063,3l-0.406,0.313l-9,7l-0.594,0.469l0,1.438l0.594,0.469l9,7l0.406,0.313l0,-3.781l-6.063,-4.719l6.063,-4.719l0,-3.781l0,-0.002zm12,0l0,3.781l6.063,4.719l-6.063,4.719l0,3.781l0.406,-0.313l9,-7l0.594,-0.469l0,-1.438l-0.594,-0.469l-9,-7l-0.406,-0.313l0,0.002z"/>
        </g>
    </g>
</svg>