<svg width="299" height="62" viewBox="0 0 299 62" fill="none" xmlns="http://www.w3.org/2000/svg">
<path fill-rule="evenodd" clip-rule="evenodd" d="M73.6808 3.94398V0L70.2564 1.96957L44.5235 16.7701L18.2367 1.95955L14.83 0.0400922V3.94398V15.316L3.48068 8.34846L6.10352e-05 6.21165V10.2894V44.4998V45.8732L1.21708 46.5148L29.4779 61.4128L30.5917 62L31.6835 61.3732L44.5352 53.9959L57.3868 61.3732L58.4787 62L59.5925 61.4128L87.8533 46.5148L89.0703 45.8732V44.4998V10.2894V6.28899L85.6217 8.32915L73.6808 15.3934V3.94398ZM4.56777 14.3673L14.83 20.6674V35.9472V37.2788L15.9926 37.9326L39.9196 51.3872L30.4977 56.7957L4.56777 43.1263V14.3673ZM58.5726 56.7957L49.1152 51.3668L72.5358 37.9226L73.6808 37.2653V35.9472V20.692L84.5026 14.2899V43.1263L58.5726 56.7957ZM19.3977 34.6156L44.5235 48.7444L69.1131 34.6291V19.3938V7.88796L45.6757 21.3682L44.5468 22.0175L43.4123 21.3782L19.3977 7.84787V19.3938V34.6156ZM105.849 18.3468H107.904L111.536 24.4543H116.629L111.581 16.2046L116.583 8.50183H111.833L108.019 14.7005H105.849V8.50183H101.35V24.4543H105.849V18.3468ZM122.533 8.50183H118.079V24.4543H122.35L128.928 15.1107V24.4543H133.381V8.50183H129.133L122.533 17.8682V8.50183ZM147.891 9.23109C146.825 8.74492 145.569 8.50183 144.122 8.50183H136.814V24.4543H141.336V20.2839H144.122C145.569 20.2839 146.825 20.0484 147.891 19.5774C148.957 19.0912 149.779 18.4076 150.357 17.5264C150.936 16.6452 151.225 15.6045 151.225 14.4043C151.225 13.204 150.936 12.1633 150.357 11.2821C149.779 10.3857 148.957 9.70207 147.891 9.23109ZM145.949 16.1362C145.477 16.5312 144.777 16.7288 143.848 16.7288H141.336V12.057H143.848C144.777 12.057 145.477 12.2621 145.949 12.6723C146.421 13.0825 146.657 13.6598 146.657 14.4043C146.657 15.1487 146.421 15.726 145.949 16.1362ZM156.786 23.7023C158.141 24.4163 159.663 24.7734 161.353 24.7734C163.043 24.7734 164.558 24.4163 165.898 23.7023C167.253 22.9882 168.311 22.0007 169.073 20.7397C169.849 19.4787 170.238 18.0581 170.238 16.4781C170.238 14.898 169.849 13.4775 169.073 12.2165C168.311 10.9555 167.253 9.96794 165.898 9.25388C164.558 8.53981 163.043 8.18278 161.353 8.18278C159.663 8.18278 158.141 8.53981 156.786 9.25388C155.446 9.96794 154.388 10.9555 153.611 12.2165C152.85 13.4775 152.469 14.898 152.469 16.4781C152.469 18.0581 152.85 19.4787 153.611 20.7397C154.388 22.0007 155.446 22.9882 156.786 23.7023ZM163.546 20.4662C162.891 20.846 162.16 21.0359 161.353 21.0359C160.546 21.0359 159.816 20.846 159.161 20.4662C158.506 20.0864 157.988 19.5546 157.608 18.8709C157.227 18.1721 157.037 17.3744 157.037 16.4781C157.037 15.5817 157.227 14.7917 157.608 14.108C157.988 13.4091 158.506 12.8698 159.161 12.49C159.816 12.1101 160.546 11.9202 161.353 11.9202C162.16 11.9202 162.891 12.1101 163.546 12.49C164.201 12.8698 164.718 13.4091 165.099 14.108C165.48 14.7917 165.67 15.5817 165.67 16.4781C165.67 17.3744 165.48 18.1721 165.099 18.8709C164.718 19.5546 164.201 20.0864 163.546 20.4662ZM186.45 17.5264C185.963 16.8883 185.247 16.4173 184.303 16.1134C185.003 15.764 185.536 15.293 185.902 14.7005C186.282 14.108 186.473 13.4243 186.473 12.6495C186.473 11.3277 185.94 10.3098 184.874 9.59572C183.823 8.86646 182.339 8.50183 180.42 8.50183H172.655V24.4543H180.854C182.879 24.4543 184.44 24.0517 185.536 23.2465C186.648 22.4261 187.204 21.3094 187.204 19.8965C187.204 18.9545 186.952 18.1645 186.45 17.5264ZM179.987 14.8828H177.109V11.7379H179.987C181.266 11.7379 181.905 12.2621 181.905 13.3104C181.905 14.3587 181.266 14.8828 179.987 14.8828ZM182.636 19.5546C182.636 20.6637 181.981 21.2182 180.672 21.2182H177.109V17.9366H180.672C181.981 17.9366 182.636 18.4759 182.636 19.5546ZM192.916 23.7251C194.256 24.4239 195.764 24.7734 197.438 24.7734C198.9 24.7734 200.217 24.5151 201.389 23.9985C202.562 23.482 203.536 22.7375 204.313 21.7652L201.435 19.1672C200.4 20.413 199.144 21.0359 197.667 21.0359C196.799 21.0359 196.022 20.846 195.337 20.4662C194.667 20.0864 194.142 19.5546 193.761 18.8709C193.396 18.1721 193.213 17.3744 193.213 16.4781C193.213 15.5817 193.396 14.7917 193.761 14.108C194.142 13.4091 194.667 12.8698 195.337 12.49C196.022 12.1101 196.799 11.9202 197.667 11.9202C199.144 11.9202 200.4 12.5431 201.435 13.7889L204.313 11.191C203.536 10.2186 202.562 9.47417 201.389 8.95762C200.217 8.44106 198.9 8.18278 197.438 8.18278C195.764 8.18278 194.256 8.53981 192.916 9.25388C191.592 9.95275 190.549 10.9327 189.787 12.1937C189.026 13.4547 188.646 14.8828 188.646 16.4781C188.646 18.0733 189.026 19.5014 189.787 20.7625C190.549 22.0235 191.592 23.011 192.916 23.7251ZM210.763 18.3468H212.819L216.45 24.4543H221.543L216.496 16.2046L221.498 8.50183H216.747L212.933 14.7005H210.763V8.50183H206.264V24.4543H210.763V18.3468ZM227.447 8.50183H222.994V24.4543H227.265L233.842 15.1107V24.4543H238.296V8.50183H234.048L227.447 17.8682V8.50183ZM246.182 8.50183H241.729V24.4543H245.999L252.577 15.1107V24.4543H257.03V8.50183H252.782L246.182 17.8682V8.50183ZM245.794 6.61032C246.555 7.23323 247.743 7.54468 249.357 7.54468C250.986 7.54468 252.181 7.23323 252.942 6.61032C253.704 5.98742 254.084 5.06066 254.084 3.83004H251.047C251.031 4.36178 250.887 4.7568 250.613 5.01508C250.339 5.27336 249.92 5.40249 249.357 5.40249C248.793 5.40249 248.382 5.27336 248.123 5.01508C247.864 4.7568 247.727 4.36178 247.712 3.83004H244.675C244.675 5.06066 245.048 5.98742 245.794 6.61032ZM113.409 46.5295C112.906 45.861 112.213 45.3597 111.33 45.0254C112.015 44.6912 112.548 44.2354 112.929 43.6581C113.325 43.0655 113.523 42.397 113.523 41.6526C113.523 40.6955 113.188 39.8674 112.518 39.1686C111.863 38.4697 110.972 37.938 109.846 37.5733C108.734 37.1935 107.524 37.0036 106.214 37.0036C104.174 37.0036 102.301 37.4138 100.596 38.2342L101.921 41.6526C102.591 41.3032 103.299 41.0373 104.045 40.855C104.791 40.6575 105.499 40.5587 106.169 40.5587C106.991 40.5587 107.661 40.703 108.178 40.9917C108.696 41.2652 108.955 41.6602 108.955 42.1768C108.955 42.587 108.788 42.9136 108.453 43.1567C108.118 43.3998 107.646 43.5213 107.037 43.5213H103.314V46.8258H107.402C108.072 46.8258 108.605 46.9397 109.001 47.1676C109.397 47.3955 109.594 47.7449 109.594 48.2159C109.594 48.8084 109.275 49.2718 108.635 49.606C107.996 49.9251 107.174 50.0846 106.169 50.0846C105.407 50.0846 104.616 49.9935 103.793 49.8112C102.987 49.6136 102.225 49.3326 101.51 48.9679L100.162 52.1129C101.182 52.6294 102.248 53.0168 103.36 53.2751C104.486 53.5334 105.59 53.6625 106.671 53.6625C108.041 53.6625 109.298 53.4726 110.44 53.0928C111.581 52.6978 112.487 52.1357 113.157 51.4064C113.827 50.6771 114.162 49.8188 114.162 48.8312C114.162 47.9652 113.911 47.198 113.409 46.5295ZM119.622 53.3207L120.878 50.2214H127.638L128.894 53.3207H133.599L126.519 37.3682H122.066L115.009 53.3207H119.622ZM124.258 41.7893L126.314 46.8941H122.203L124.258 41.7893ZM149.226 46.3928C148.739 45.7547 148.023 45.2837 147.079 44.9798C147.779 44.6304 148.312 44.1594 148.678 43.5669C149.058 42.9744 149.249 42.2907 149.249 41.5159C149.249 40.1941 148.716 39.1762 147.65 38.4621C146.599 37.7328 145.115 37.3682 143.196 37.3682H135.431V53.3207H143.63C145.655 53.3207 147.216 52.9181 148.312 52.1129C149.424 51.2925 149.979 50.1758 149.979 48.7629C149.979 47.8209 149.728 47.0309 149.226 46.3928ZM142.762 43.7492H139.885V40.6043H142.762C144.041 40.6043 144.681 41.1284 144.681 42.1768C144.681 43.2251 144.041 43.7492 142.762 43.7492ZM145.412 48.421C145.412 49.5301 144.757 50.0846 143.448 50.0846H139.885V46.803H143.448C144.757 46.803 145.412 47.3423 145.412 48.421ZM155.715 52.5686C157.07 53.2827 158.593 53.6397 160.283 53.6397C161.973 53.6397 163.488 53.2827 164.828 52.5686C166.183 51.8546 167.241 50.8671 168.002 49.606C168.779 48.345 169.167 46.9245 169.167 45.3445C169.167 43.7644 168.779 42.3439 168.002 41.0829C167.241 39.8219 166.183 38.8343 164.828 38.1203C163.488 37.4062 161.973 37.0492 160.283 37.0492C158.593 37.0492 157.07 37.4062 155.715 38.1203C154.375 38.8343 153.317 39.8219 152.541 41.0829C151.779 42.3439 151.399 43.7644 151.399 45.3445C151.399 46.9245 151.779 48.345 152.541 49.606C153.317 50.8671 154.375 51.8546 155.715 52.5686ZM162.475 49.3326C161.821 49.7124 161.09 49.9023 160.283 49.9023C159.476 49.9023 158.745 49.7124 158.09 49.3326C157.436 48.9528 156.918 48.421 156.537 47.7373C156.157 47.0385 155.966 46.2408 155.966 45.3445C155.966 44.4481 156.157 43.6581 156.537 42.9744C156.918 42.2755 157.436 41.7362 158.09 41.3563C158.745 40.9765 159.476 40.7866 160.283 40.7866C161.09 40.7866 161.821 40.9765 162.475 41.3563C163.13 41.7362 163.648 42.2755 164.028 42.9744C164.409 43.6581 164.599 44.4481 164.599 45.3445C164.599 46.2408 164.409 47.0385 164.028 47.7373C163.648 48.421 163.13 48.9528 162.475 49.3326ZM188.313 56.534V49.7428H186.144V37.3682H173.263L173.08 42.2907C172.989 44.6912 172.745 46.5295 172.349 47.8057C171.969 49.0819 171.306 49.7276 170.362 49.7428H169.791V56.534H173.948V53.3207H184.18V56.534H188.313ZM176.62 47.0081C176.833 45.823 176.97 44.3797 177.031 42.6781L177.1 40.9461H181.69V49.7428H175.638C176.079 49.1047 176.407 48.1931 176.62 47.0081ZM210.483 37.3682H197.122V53.3207H205.116C207.201 53.3207 208.823 52.8725 209.98 51.9761C211.137 51.0646 211.716 49.8036 211.716 48.1931C211.716 46.6586 211.198 45.4812 210.163 44.6608C209.127 43.8404 207.643 43.4302 205.709 43.4302H201.576V40.855H210.483V37.3682ZM206.554 49.6288C206.158 49.9327 205.58 50.0846 204.819 50.0846H201.576V46.6434H204.819C206.372 46.6434 207.148 47.2056 207.148 48.3299C207.148 48.892 206.95 49.325 206.554 49.6288ZM226.885 53.3207V49.8339H218.527V46.9169H225.629V43.5441H218.527V40.855H226.589V37.3682H214.05V53.3207H226.885ZM237.455 40.9461H242.343V37.3682H228.091V40.9461H233.002V53.3207H237.455V40.9461ZM247.493 52.5686C248.848 53.2827 250.371 53.6397 252.061 53.6397C253.751 53.6397 255.266 53.2827 256.606 52.5686C257.961 51.8546 259.019 50.8671 259.78 49.606C260.557 48.345 260.945 46.9245 260.945 45.3445C260.945 43.7644 260.557 42.3439 259.78 41.0829C259.019 39.8219 257.961 38.8343 256.606 38.1203C255.266 37.4062 253.751 37.0492 252.061 37.0492C250.371 37.0492 248.848 37.4062 247.493 38.1203C246.153 38.8343 245.095 39.8219 244.318 41.0829C243.557 42.3439 243.176 43.7644 243.176 45.3445C243.176 46.9245 243.557 48.345 244.318 49.606C245.095 50.8671 246.153 51.8546 247.493 52.5686ZM254.253 49.3326C253.598 49.7124 252.868 49.9023 252.061 49.9023C251.254 49.9023 250.523 49.7124 249.868 49.3326C249.213 48.9528 248.696 48.421 248.315 47.7373C247.934 47.0385 247.744 46.2408 247.744 45.3445C247.744 44.4481 247.934 43.6581 248.315 42.9744C248.696 42.2755 249.213 41.7362 249.868 41.3563C250.523 40.9765 251.254 40.7866 252.061 40.7866C252.868 40.7866 253.598 40.9765 254.253 41.3563C254.908 41.7362 255.426 42.2755 255.806 42.9744C256.187 43.6581 256.377 44.4481 256.377 45.3445C256.377 46.2408 256.187 47.0385 255.806 47.7373C255.426 48.421 254.908 48.9528 254.253 49.3326ZM278.573 53.3207V37.3682H274.051V43.3618H267.885V37.3682H263.363V53.3207H267.885V47.0992H274.051V53.3207H278.573ZM285.023 53.3207L286.279 50.2214H293.039L294.295 53.3207H299L291.92 37.3682H287.467L280.409 53.3207H285.023ZM289.659 41.7893L291.715 46.8941H287.604L289.659 41.7893Z" fill="#060C4A"/>
</svg>
